<mxfile host="app.diagrams.net" modified="2023-11-08T02:30:54.833Z" agent="Mozilla/5.0 (Windows NT 10.0; Win64; x64) AppleWebKit/537.36 (KHTML, like Gecko) Chrome/119.0.0.0 Safari/537.36" etag="DQqbuxcblQrboQ-S4Nmr" version="22.0.8" type="google">
  <diagram name="Page-1" id="qXM89XTeMf5cefKTgedM">
    <mxGraphModel grid="1" page="1" gridSize="10" guides="1" tooltips="1" connect="1" arrows="1" fold="1" pageScale="1" pageWidth="827" pageHeight="1169" math="0" shadow="0">
      <root>
        <mxCell id="0" />
        <mxCell id="1" parent="0" />
        <mxCell id="WeFiFPSYRljII1s766pl-1" value="FoodRersevation" style="swimlane;fontStyle=1;align=center;verticalAlign=top;childLayout=stackLayout;horizontal=1;startSize=26;horizontalStack=0;resizeParent=1;resizeParentMax=0;resizeLast=0;collapsible=1;marginBottom=0;whiteSpace=wrap;html=1;" vertex="1" parent="1">
          <mxGeometry x="-507.55" y="970.95" width="160" height="216" as="geometry" />
        </mxCell>
        <mxCell id="WeFiFPSYRljII1s766pl-4" value="- DiningType: string" style="text;strokeColor=none;fillColor=none;align=left;verticalAlign=top;spacingLeft=4;spacingRight=4;overflow=hidden;rotatable=0;points=[[0,0.5],[1,0.5]];portConstraint=eastwest;whiteSpace=wrap;html=1;" vertex="1" parent="WeFiFPSYRljII1s766pl-1">
          <mxGeometry y="26" width="160" height="26" as="geometry" />
        </mxCell>
        <mxCell id="Sj2HHbRkepg-0d2NE3xc-6" value="- Food: List&amp;lt;string&amp;gt;" style="text;strokeColor=none;fillColor=none;align=left;verticalAlign=top;spacingLeft=4;spacingRight=4;overflow=hidden;rotatable=0;points=[[0,0.5],[1,0.5]];portConstraint=eastwest;whiteSpace=wrap;html=1;" vertex="1" parent="WeFiFPSYRljII1s766pl-1">
          <mxGeometry y="52" width="160" height="26" as="geometry" />
        </mxCell>
        <mxCell id="Sj2HHbRkepg-0d2NE3xc-10" value="- DeliveredDate:int" style="text;strokeColor=none;fillColor=none;align=left;verticalAlign=top;spacingLeft=4;spacingRight=4;overflow=hidden;rotatable=0;points=[[0,0.5],[1,0.5]];portConstraint=eastwest;whiteSpace=wrap;html=1;" vertex="1" parent="WeFiFPSYRljII1s766pl-1">
          <mxGeometry y="78" width="160" height="26" as="geometry" />
        </mxCell>
        <mxCell id="Sj2HHbRkepg-0d2NE3xc-16" value="- DeliveredRoomID:int" style="text;strokeColor=none;fillColor=none;align=left;verticalAlign=top;spacingLeft=4;spacingRight=4;overflow=hidden;rotatable=0;points=[[0,0.5],[1,0.5]];portConstraint=eastwest;whiteSpace=wrap;html=1;" vertex="1" parent="WeFiFPSYRljII1s766pl-1">
          <mxGeometry y="104" width="160" height="26" as="geometry" />
        </mxCell>
        <mxCell id="Sj2HHbRkepg-0d2NE3xc-17" value="- isReady:bool" style="text;strokeColor=none;fillColor=none;align=left;verticalAlign=top;spacingLeft=4;spacingRight=4;overflow=hidden;rotatable=0;points=[[0,0.5],[1,0.5]];portConstraint=eastwest;whiteSpace=wrap;html=1;" vertex="1" parent="WeFiFPSYRljII1s766pl-1">
          <mxGeometry y="130" width="160" height="26" as="geometry" />
        </mxCell>
        <mxCell id="WeFiFPSYRljII1s766pl-3" value="" style="line;strokeWidth=1;fillColor=none;align=left;verticalAlign=middle;spacingTop=-1;spacingLeft=3;spacingRight=3;rotatable=0;labelPosition=right;points=[];portConstraint=eastwest;strokeColor=inherit;" vertex="1" parent="WeFiFPSYRljII1s766pl-1">
          <mxGeometry y="156" width="160" height="8" as="geometry" />
        </mxCell>
        <mxCell id="-Pz-NLWRiqIHyBBIaTiA-5" value="-AssignCook():void" style="text;strokeColor=none;fillColor=none;align=left;verticalAlign=top;spacingLeft=4;spacingRight=4;overflow=hidden;rotatable=0;points=[[0,0.5],[1,0.5]];portConstraint=eastwest;whiteSpace=wrap;html=1;" vertex="1" parent="WeFiFPSYRljII1s766pl-1">
          <mxGeometry y="164" width="160" height="26" as="geometry" />
        </mxCell>
        <mxCell id="Sj2HHbRkepg-0d2NE3xc-36" value="-AssignDeliver():void" style="text;strokeColor=none;fillColor=none;align=left;verticalAlign=top;spacingLeft=4;spacingRight=4;overflow=hidden;rotatable=0;points=[[0,0.5],[1,0.5]];portConstraint=eastwest;whiteSpace=wrap;html=1;" vertex="1" parent="WeFiFPSYRljII1s766pl-1">
          <mxGeometry y="190" width="160" height="26" as="geometry" />
        </mxCell>
        <mxCell id="WeFiFPSYRljII1s766pl-20" value="Cook" style="swimlane;fontStyle=1;align=center;verticalAlign=top;childLayout=stackLayout;horizontal=1;startSize=26;horizontalStack=0;resizeParent=1;resizeParentMax=0;resizeLast=0;collapsible=1;marginBottom=0;whiteSpace=wrap;html=1;" vertex="1" parent="1">
          <mxGeometry x="-520" y="310" width="1040" height="86" as="geometry" />
        </mxCell>
        <mxCell id="WeFiFPSYRljII1s766pl-22" value="- CookID: Int" style="text;strokeColor=none;fillColor=none;align=left;verticalAlign=top;spacingLeft=4;spacingRight=4;overflow=hidden;rotatable=0;points=[[0,0.5],[1,0.5]];portConstraint=eastwest;whiteSpace=wrap;html=1;" vertex="1" parent="WeFiFPSYRljII1s766pl-20">
          <mxGeometry y="26" width="1040" height="26" as="geometry" />
        </mxCell>
        <mxCell id="WeFiFPSYRljII1s766pl-23" value="" style="line;strokeWidth=1;fillColor=none;align=left;verticalAlign=middle;spacingTop=-1;spacingLeft=3;spacingRight=3;rotatable=0;labelPosition=right;points=[];portConstraint=eastwest;strokeColor=inherit;" vertex="1" parent="WeFiFPSYRljII1s766pl-20">
          <mxGeometry y="52" width="1040" height="8" as="geometry" />
        </mxCell>
        <mxCell id="WeFiFPSYRljII1s766pl-24" value="- Cook(): bool" style="text;strokeColor=none;fillColor=none;align=left;verticalAlign=top;spacingLeft=4;spacingRight=4;overflow=hidden;rotatable=0;points=[[0,0.5],[1,0.5]];portConstraint=eastwest;whiteSpace=wrap;html=1;" vertex="1" parent="WeFiFPSYRljII1s766pl-20">
          <mxGeometry y="60" width="1040" height="26" as="geometry" />
        </mxCell>
        <mxCell id="vIy7j_pHb_5L0HNnq9O6-1" value="User" style="swimlane;fontStyle=1;align=center;verticalAlign=top;childLayout=stackLayout;horizontal=1;startSize=26;horizontalStack=0;resizeParent=1;resizeParentMax=0;resizeLast=0;collapsible=1;marginBottom=0;whiteSpace=wrap;html=1;" vertex="1" parent="1">
          <mxGeometry x="-840" y="-200" width="160" height="216" as="geometry" />
        </mxCell>
        <mxCell id="vIy7j_pHb_5L0HNnq9O6-2" value="- UserName: string" style="text;strokeColor=none;fillColor=none;align=left;verticalAlign=top;spacingLeft=4;spacingRight=4;overflow=hidden;rotatable=0;points=[[0,0.5],[1,0.5]];portConstraint=eastwest;whiteSpace=wrap;html=1;" vertex="1" parent="vIy7j_pHb_5L0HNnq9O6-1">
          <mxGeometry y="26" width="160" height="26" as="geometry" />
        </mxCell>
        <mxCell id="vIy7j_pHb_5L0HNnq9O6-3" value="- PhoneNumber: Int" style="text;strokeColor=none;fillColor=none;align=left;verticalAlign=top;spacingLeft=4;spacingRight=4;overflow=hidden;rotatable=0;points=[[0,0.5],[1,0.5]];portConstraint=eastwest;whiteSpace=wrap;html=1;" vertex="1" parent="vIy7j_pHb_5L0HNnq9O6-1">
          <mxGeometry y="52" width="160" height="26" as="geometry" />
        </mxCell>
        <mxCell id="vIy7j_pHb_5L0HNnq9O6-33" value="- UserType: string" style="text;strokeColor=none;fillColor=none;align=left;verticalAlign=top;spacingLeft=4;spacingRight=4;overflow=hidden;rotatable=0;points=[[0,0.5],[1,0.5]];portConstraint=eastwest;whiteSpace=wrap;html=1;" vertex="1" parent="vIy7j_pHb_5L0HNnq9O6-1">
          <mxGeometry y="78" width="160" height="26" as="geometry" />
        </mxCell>
        <mxCell id="vIy7j_pHb_5L0HNnq9O6-5" value="" style="line;strokeWidth=1;fillColor=none;align=left;verticalAlign=middle;spacingTop=-1;spacingLeft=3;spacingRight=3;rotatable=0;labelPosition=right;points=[];portConstraint=eastwest;strokeColor=inherit;" vertex="1" parent="vIy7j_pHb_5L0HNnq9O6-1">
          <mxGeometry y="104" width="160" height="8" as="geometry" />
        </mxCell>
        <mxCell id="vIy7j_pHb_5L0HNnq9O6-7" value="+ GetName(): string" style="text;strokeColor=none;fillColor=none;align=left;verticalAlign=top;spacingLeft=4;spacingRight=4;overflow=hidden;rotatable=0;points=[[0,0.5],[1,0.5]];portConstraint=eastwest;whiteSpace=wrap;html=1;" vertex="1" parent="vIy7j_pHb_5L0HNnq9O6-1">
          <mxGeometry y="112" width="160" height="26" as="geometry" />
        </mxCell>
        <mxCell id="vIy7j_pHb_5L0HNnq9O6-8" value="+ GetPhoneNumber(): int" style="text;strokeColor=none;fillColor=none;align=left;verticalAlign=top;spacingLeft=4;spacingRight=4;overflow=hidden;rotatable=0;points=[[0,0.5],[1,0.5]];portConstraint=eastwest;whiteSpace=wrap;html=1;" vertex="1" parent="vIy7j_pHb_5L0HNnq9O6-1">
          <mxGeometry y="138" width="160" height="26" as="geometry" />
        </mxCell>
        <mxCell id="vIy7j_pHb_5L0HNnq9O6-34" value="+ GetUserID(): int" style="text;strokeColor=none;fillColor=none;align=left;verticalAlign=top;spacingLeft=4;spacingRight=4;overflow=hidden;rotatable=0;points=[[0,0.5],[1,0.5]];portConstraint=eastwest;whiteSpace=wrap;html=1;" vertex="1" parent="vIy7j_pHb_5L0HNnq9O6-1">
          <mxGeometry y="164" width="160" height="26" as="geometry" />
        </mxCell>
        <mxCell id="vIy7j_pHb_5L0HNnq9O6-6" value="+ GetType(): string" style="text;strokeColor=none;fillColor=none;align=left;verticalAlign=top;spacingLeft=4;spacingRight=4;overflow=hidden;rotatable=0;points=[[0,0.5],[1,0.5]];portConstraint=eastwest;whiteSpace=wrap;html=1;" vertex="1" parent="vIy7j_pHb_5L0HNnq9O6-1">
          <mxGeometry y="190" width="160" height="26" as="geometry" />
        </mxCell>
        <mxCell id="vIy7j_pHb_5L0HNnq9O6-11" value="Resort" style="swimlane;fontStyle=1;align=center;verticalAlign=top;childLayout=stackLayout;horizontal=1;startSize=26;horizontalStack=0;resizeParent=1;resizeParentMax=0;resizeLast=0;collapsible=1;marginBottom=0;whiteSpace=wrap;html=1;" vertex="1" parent="1">
          <mxGeometry x="-1100" y="112" width="160" height="112" as="geometry" />
        </mxCell>
        <mxCell id="vIy7j_pHb_5L0HNnq9O6-12" value="- ResortID:int" style="text;strokeColor=none;fillColor=none;align=left;verticalAlign=top;spacingLeft=4;spacingRight=4;overflow=hidden;rotatable=0;points=[[0,0.5],[1,0.5]];portConstraint=eastwest;whiteSpace=wrap;html=1;" vertex="1" parent="vIy7j_pHb_5L0HNnq9O6-11">
          <mxGeometry y="26" width="160" height="26" as="geometry" />
        </mxCell>
        <mxCell id="vIy7j_pHb_5L0HNnq9O6-85" value="- Address:string" style="text;strokeColor=none;fillColor=none;align=left;verticalAlign=top;spacingLeft=4;spacingRight=4;overflow=hidden;rotatable=0;points=[[0,0.5],[1,0.5]];portConstraint=eastwest;whiteSpace=wrap;html=1;" vertex="1" parent="vIy7j_pHb_5L0HNnq9O6-11">
          <mxGeometry y="52" width="160" height="26" as="geometry" />
        </mxCell>
        <mxCell id="vIy7j_pHb_5L0HNnq9O6-13" value="" style="line;strokeWidth=1;fillColor=none;align=left;verticalAlign=middle;spacingTop=-1;spacingLeft=3;spacingRight=3;rotatable=0;labelPosition=right;points=[];portConstraint=eastwest;strokeColor=inherit;" vertex="1" parent="vIy7j_pHb_5L0HNnq9O6-11">
          <mxGeometry y="78" width="160" height="8" as="geometry" />
        </mxCell>
        <mxCell id="vIy7j_pHb_5L0HNnq9O6-14" value="+ Resort" style="text;strokeColor=none;fillColor=none;align=left;verticalAlign=top;spacingLeft=4;spacingRight=4;overflow=hidden;rotatable=0;points=[[0,0.5],[1,0.5]];portConstraint=eastwest;whiteSpace=wrap;html=1;" vertex="1" parent="vIy7j_pHb_5L0HNnq9O6-11">
          <mxGeometry y="86" width="160" height="26" as="geometry" />
        </mxCell>
        <mxCell id="vIy7j_pHb_5L0HNnq9O6-21" value="Guest" style="swimlane;fontStyle=1;align=center;verticalAlign=top;childLayout=stackLayout;horizontal=1;startSize=26;horizontalStack=0;resizeParent=1;resizeParentMax=0;resizeLast=0;collapsible=1;marginBottom=0;whiteSpace=wrap;html=1;" vertex="1" parent="1">
          <mxGeometry x="-520" y="108" width="1040" height="164" as="geometry" />
        </mxCell>
        <mxCell id="vIy7j_pHb_5L0HNnq9O6-24" value="- GuestID: Int" style="text;strokeColor=none;fillColor=none;align=left;verticalAlign=top;spacingLeft=4;spacingRight=4;overflow=hidden;rotatable=0;points=[[0,0.5],[1,0.5]];portConstraint=eastwest;whiteSpace=wrap;html=1;" vertex="1" parent="vIy7j_pHb_5L0HNnq9O6-21">
          <mxGeometry y="26" width="1040" height="26" as="geometry" />
        </mxCell>
        <mxCell id="vIy7j_pHb_5L0HNnq9O6-25" value="" style="line;strokeWidth=1;fillColor=none;align=left;verticalAlign=middle;spacingTop=-1;spacingLeft=3;spacingRight=3;rotatable=0;labelPosition=right;points=[];portConstraint=eastwest;strokeColor=inherit;" vertex="1" parent="vIy7j_pHb_5L0HNnq9O6-21">
          <mxGeometry y="52" width="1040" height="8" as="geometry" />
        </mxCell>
        <mxCell id="vIy7j_pHb_5L0HNnq9O6-27" value="- onlineFoodReservation(SelectFood: List&amp;lt;string&amp;gt;, deliveredDate: int): Reservation" style="text;strokeColor=none;fillColor=none;align=left;verticalAlign=top;spacingLeft=4;spacingRight=4;overflow=hidden;rotatable=0;points=[[0,0.5],[1,0.5]];portConstraint=eastwest;whiteSpace=wrap;html=1;" vertex="1" parent="vIy7j_pHb_5L0HNnq9O6-21">
          <mxGeometry y="60" width="1040" height="26" as="geometry" />
        </mxCell>
        <mxCell id="-Pz-NLWRiqIHyBBIaTiA-2" value="- onlineFoodCheck(slectedRoomReservation: RoomReservation): bool" style="text;strokeColor=none;fillColor=none;align=left;verticalAlign=top;spacingLeft=4;spacingRight=4;overflow=hidden;rotatable=0;points=[[0,0.5],[1,0.5]];portConstraint=eastwest;whiteSpace=wrap;html=1;" vertex="1" parent="vIy7j_pHb_5L0HNnq9O6-21">
          <mxGeometry y="86" width="1040" height="26" as="geometry" />
        </mxCell>
        <mxCell id="-Pz-NLWRiqIHyBBIaTiA-3" value="- payCheck(slectedReservation: Reservation): bool" style="text;strokeColor=none;fillColor=none;align=left;verticalAlign=top;spacingLeft=4;spacingRight=4;overflow=hidden;rotatable=0;points=[[0,0.5],[1,0.5]];portConstraint=eastwest;whiteSpace=wrap;html=1;" vertex="1" parent="vIy7j_pHb_5L0HNnq9O6-21">
          <mxGeometry y="112" width="1040" height="26" as="geometry" />
        </mxCell>
        <mxCell id="Sj2HHbRkepg-0d2NE3xc-37" value="- navigateHotel(selectedRoom: Room): void" style="text;strokeColor=none;fillColor=none;align=left;verticalAlign=top;spacingLeft=4;spacingRight=4;overflow=hidden;rotatable=0;points=[[0,0.5],[1,0.5]];portConstraint=eastwest;whiteSpace=wrap;html=1;" vertex="1" parent="vIy7j_pHb_5L0HNnq9O6-21">
          <mxGeometry y="138" width="1040" height="26" as="geometry" />
        </mxCell>
        <mxCell id="vIy7j_pHb_5L0HNnq9O6-31" style="edgeStyle=orthogonalEdgeStyle;rounded=0;orthogonalLoop=1;jettySize=auto;html=1;exitX=0.25;exitY=0;exitDx=0;exitDy=0;entryX=1;entryY=0.5;entryDx=0;entryDy=0;endArrow=block;endFill=0;" edge="1" parent="1" source="vIy7j_pHb_5L0HNnq9O6-21" target="vIy7j_pHb_5L0HNnq9O6-2">
          <mxGeometry relative="1" as="geometry">
            <mxPoint x="-380" y="89" as="sourcePoint" />
            <Array as="points">
              <mxPoint x="-260" y="-161" />
            </Array>
          </mxGeometry>
        </mxCell>
        <mxCell id="vIy7j_pHb_5L0HNnq9O6-32" style="edgeStyle=orthogonalEdgeStyle;rounded=0;orthogonalLoop=1;jettySize=auto;html=1;exitX=0.25;exitY=0;exitDx=0;exitDy=0;entryX=1;entryY=0.5;entryDx=0;entryDy=0;endArrow=block;endFill=0;" edge="1" parent="1" source="WeFiFPSYRljII1s766pl-20" target="vIy7j_pHb_5L0HNnq9O6-2">
          <mxGeometry relative="1" as="geometry">
            <Array as="points">
              <mxPoint x="-260" y="280" />
              <mxPoint x="-580" y="280" />
              <mxPoint x="-580" y="-161" />
            </Array>
          </mxGeometry>
        </mxCell>
        <mxCell id="vIy7j_pHb_5L0HNnq9O6-39" value="Reservation" style="swimlane;fontStyle=1;align=center;verticalAlign=top;childLayout=stackLayout;horizontal=1;startSize=26;horizontalStack=0;resizeParent=1;resizeParentMax=0;resizeLast=0;collapsible=1;marginBottom=0;whiteSpace=wrap;html=1;" vertex="1" parent="1">
          <mxGeometry x="-840" y="290" width="160" height="268" as="geometry" />
        </mxCell>
        <mxCell id="vIy7j_pHb_5L0HNnq9O6-42" value="-&amp;nbsp;ReservationID: Int" style="text;strokeColor=none;fillColor=none;align=left;verticalAlign=top;spacingLeft=4;spacingRight=4;overflow=hidden;rotatable=0;points=[[0,0.5],[1,0.5]];portConstraint=eastwest;whiteSpace=wrap;html=1;" vertex="1" parent="vIy7j_pHb_5L0HNnq9O6-39">
          <mxGeometry y="26" width="160" height="26" as="geometry" />
        </mxCell>
        <mxCell id="vIy7j_pHb_5L0HNnq9O6-43" value="- ReservationType: string" style="text;strokeColor=none;fillColor=none;align=left;verticalAlign=top;spacingLeft=4;spacingRight=4;overflow=hidden;rotatable=0;points=[[0,0.5],[1,0.5]];portConstraint=eastwest;whiteSpace=wrap;html=1;" vertex="1" parent="vIy7j_pHb_5L0HNnq9O6-39">
          <mxGeometry y="52" width="160" height="26" as="geometry" />
        </mxCell>
        <mxCell id="vIy7j_pHb_5L0HNnq9O6-118" value="- StartDate: int" style="text;strokeColor=none;fillColor=none;align=left;verticalAlign=top;spacingLeft=4;spacingRight=4;overflow=hidden;rotatable=0;points=[[0,0.5],[1,0.5]];portConstraint=eastwest;whiteSpace=wrap;html=1;" vertex="1" parent="vIy7j_pHb_5L0HNnq9O6-39">
          <mxGeometry y="78" width="160" height="26" as="geometry" />
        </mxCell>
        <mxCell id="vIy7j_pHb_5L0HNnq9O6-117" value="- EndDate: int" style="text;strokeColor=none;fillColor=none;align=left;verticalAlign=top;spacingLeft=4;spacingRight=4;overflow=hidden;rotatable=0;points=[[0,0.5],[1,0.5]];portConstraint=eastwest;whiteSpace=wrap;html=1;" vertex="1" parent="vIy7j_pHb_5L0HNnq9O6-39">
          <mxGeometry y="104" width="160" height="26" as="geometry" />
        </mxCell>
        <mxCell id="-Pz-NLWRiqIHyBBIaTiA-4" value="- Price: int" style="text;strokeColor=none;fillColor=none;align=left;verticalAlign=top;spacingLeft=4;spacingRight=4;overflow=hidden;rotatable=0;points=[[0,0.5],[1,0.5]];portConstraint=eastwest;whiteSpace=wrap;html=1;" vertex="1" parent="vIy7j_pHb_5L0HNnq9O6-39">
          <mxGeometry y="130" width="160" height="26" as="geometry" />
        </mxCell>
        <mxCell id="vIy7j_pHb_5L0HNnq9O6-44" value="" style="line;strokeWidth=1;fillColor=none;align=left;verticalAlign=middle;spacingTop=-1;spacingLeft=3;spacingRight=3;rotatable=0;labelPosition=right;points=[];portConstraint=eastwest;strokeColor=inherit;" vertex="1" parent="vIy7j_pHb_5L0HNnq9O6-39">
          <mxGeometry y="156" width="160" height="8" as="geometry" />
        </mxCell>
        <mxCell id="vIy7j_pHb_5L0HNnq9O6-47" value="- GetReservationID(): int" style="text;strokeColor=none;fillColor=none;align=left;verticalAlign=top;spacingLeft=4;spacingRight=4;overflow=hidden;rotatable=0;points=[[0,0.5],[1,0.5]];portConstraint=eastwest;whiteSpace=wrap;html=1;" vertex="1" parent="vIy7j_pHb_5L0HNnq9O6-39">
          <mxGeometry y="164" width="160" height="26" as="geometry" />
        </mxCell>
        <mxCell id="vIy7j_pHb_5L0HNnq9O6-48" value="- GetType(): string" style="text;strokeColor=none;fillColor=none;align=left;verticalAlign=top;spacingLeft=4;spacingRight=4;overflow=hidden;rotatable=0;points=[[0,0.5],[1,0.5]];portConstraint=eastwest;whiteSpace=wrap;html=1;" vertex="1" parent="vIy7j_pHb_5L0HNnq9O6-39">
          <mxGeometry y="190" width="160" height="26" as="geometry" />
        </mxCell>
        <mxCell id="vIy7j_pHb_5L0HNnq9O6-115" value="- GetStartDate(): int" style="text;strokeColor=none;fillColor=none;align=left;verticalAlign=top;spacingLeft=4;spacingRight=4;overflow=hidden;rotatable=0;points=[[0,0.5],[1,0.5]];portConstraint=eastwest;whiteSpace=wrap;html=1;" vertex="1" parent="vIy7j_pHb_5L0HNnq9O6-39">
          <mxGeometry y="216" width="160" height="26" as="geometry" />
        </mxCell>
        <mxCell id="vIy7j_pHb_5L0HNnq9O6-116" value="- GetEndDate(): int" style="text;strokeColor=none;fillColor=none;align=left;verticalAlign=top;spacingLeft=4;spacingRight=4;overflow=hidden;rotatable=0;points=[[0,0.5],[1,0.5]];portConstraint=eastwest;whiteSpace=wrap;html=1;" vertex="1" parent="vIy7j_pHb_5L0HNnq9O6-39">
          <mxGeometry y="242" width="160" height="26" as="geometry" />
        </mxCell>
        <mxCell id="vIy7j_pHb_5L0HNnq9O6-49" value="Facility" style="swimlane;fontStyle=1;align=center;verticalAlign=top;childLayout=stackLayout;horizontal=1;startSize=26;horizontalStack=0;resizeParent=1;resizeParentMax=0;resizeLast=0;collapsible=1;marginBottom=0;whiteSpace=wrap;html=1;" vertex="1" parent="1">
          <mxGeometry x="-827.5500000000001" y="1030.95" width="160" height="268" as="geometry" />
        </mxCell>
        <mxCell id="vIy7j_pHb_5L0HNnq9O6-50" value="- Name: string" style="text;strokeColor=none;fillColor=none;align=left;verticalAlign=top;spacingLeft=4;spacingRight=4;overflow=hidden;rotatable=0;points=[[0,0.5],[1,0.5]];portConstraint=eastwest;whiteSpace=wrap;html=1;" vertex="1" parent="vIy7j_pHb_5L0HNnq9O6-49">
          <mxGeometry y="26" width="160" height="26" as="geometry" />
        </mxCell>
        <mxCell id="vIy7j_pHb_5L0HNnq9O6-51" value="- FacilityLocation: string" style="text;strokeColor=none;fillColor=none;align=left;verticalAlign=top;spacingLeft=4;spacingRight=4;overflow=hidden;rotatable=0;points=[[0,0.5],[1,0.5]];portConstraint=eastwest;whiteSpace=wrap;html=1;" vertex="1" parent="vIy7j_pHb_5L0HNnq9O6-49">
          <mxGeometry y="52" width="160" height="26" as="geometry" />
        </mxCell>
        <mxCell id="vIy7j_pHb_5L0HNnq9O6-52" value="-&amp;nbsp;FacilityID: int" style="text;strokeColor=none;fillColor=none;align=left;verticalAlign=top;spacingLeft=4;spacingRight=4;overflow=hidden;rotatable=0;points=[[0,0.5],[1,0.5]];portConstraint=eastwest;whiteSpace=wrap;html=1;" vertex="1" parent="vIy7j_pHb_5L0HNnq9O6-49">
          <mxGeometry y="78" width="160" height="26" as="geometry" />
        </mxCell>
        <mxCell id="vIy7j_pHb_5L0HNnq9O6-73" value="- FacilityType: string" style="text;strokeColor=none;fillColor=none;align=left;verticalAlign=top;spacingLeft=4;spacingRight=4;overflow=hidden;rotatable=0;points=[[0,0.5],[1,0.5]];portConstraint=eastwest;whiteSpace=wrap;html=1;" vertex="1" parent="vIy7j_pHb_5L0HNnq9O6-49">
          <mxGeometry y="104" width="160" height="26" as="geometry" />
        </mxCell>
        <mxCell id="vIy7j_pHb_5L0HNnq9O6-53" value="- Capacitance: int" style="text;strokeColor=none;fillColor=none;align=left;verticalAlign=top;spacingLeft=4;spacingRight=4;overflow=hidden;rotatable=0;points=[[0,0.5],[1,0.5]];portConstraint=eastwest;whiteSpace=wrap;html=1;" vertex="1" parent="vIy7j_pHb_5L0HNnq9O6-49">
          <mxGeometry y="130" width="160" height="26" as="geometry" />
        </mxCell>
        <mxCell id="vIy7j_pHb_5L0HNnq9O6-54" value="" style="line;strokeWidth=1;fillColor=none;align=left;verticalAlign=middle;spacingTop=-1;spacingLeft=3;spacingRight=3;rotatable=0;labelPosition=right;points=[];portConstraint=eastwest;strokeColor=inherit;" vertex="1" parent="vIy7j_pHb_5L0HNnq9O6-49">
          <mxGeometry y="156" width="160" height="8" as="geometry" />
        </mxCell>
        <mxCell id="vIy7j_pHb_5L0HNnq9O6-55" value="- GetName(): string" style="text;strokeColor=none;fillColor=none;align=left;verticalAlign=top;spacingLeft=4;spacingRight=4;overflow=hidden;rotatable=0;points=[[0,0.5],[1,0.5]];portConstraint=eastwest;whiteSpace=wrap;html=1;" vertex="1" parent="vIy7j_pHb_5L0HNnq9O6-49">
          <mxGeometry y="164" width="160" height="26" as="geometry" />
        </mxCell>
        <mxCell id="vIy7j_pHb_5L0HNnq9O6-56" value="- GetPhoneNumber(): int" style="text;strokeColor=none;fillColor=none;align=left;verticalAlign=top;spacingLeft=4;spacingRight=4;overflow=hidden;rotatable=0;points=[[0,0.5],[1,0.5]];portConstraint=eastwest;whiteSpace=wrap;html=1;" vertex="1" parent="vIy7j_pHb_5L0HNnq9O6-49">
          <mxGeometry y="190" width="160" height="26" as="geometry" />
        </mxCell>
        <mxCell id="vIy7j_pHb_5L0HNnq9O6-57" value="- GetUserID(): int" style="text;strokeColor=none;fillColor=none;align=left;verticalAlign=top;spacingLeft=4;spacingRight=4;overflow=hidden;rotatable=0;points=[[0,0.5],[1,0.5]];portConstraint=eastwest;whiteSpace=wrap;html=1;" vertex="1" parent="vIy7j_pHb_5L0HNnq9O6-49">
          <mxGeometry y="216" width="160" height="26" as="geometry" />
        </mxCell>
        <mxCell id="vIy7j_pHb_5L0HNnq9O6-58" value="- GetType(): string" style="text;strokeColor=none;fillColor=none;align=left;verticalAlign=top;spacingLeft=4;spacingRight=4;overflow=hidden;rotatable=0;points=[[0,0.5],[1,0.5]];portConstraint=eastwest;whiteSpace=wrap;html=1;" vertex="1" parent="vIy7j_pHb_5L0HNnq9O6-49">
          <mxGeometry y="242" width="160" height="26" as="geometry" />
        </mxCell>
        <mxCell id="vIy7j_pHb_5L0HNnq9O6-67" value="Room" style="swimlane;fontStyle=1;align=center;verticalAlign=top;childLayout=stackLayout;horizontal=1;startSize=26;horizontalStack=0;resizeParent=1;resizeParentMax=0;resizeLast=0;collapsible=1;marginBottom=0;whiteSpace=wrap;html=1;" vertex="1" parent="1">
          <mxGeometry x="-507.55" y="1340.95" width="160" height="86" as="geometry" />
        </mxCell>
        <mxCell id="pluPpm19IUilGA6iMKDm-1" value="- RoomNumber: int" style="text;strokeColor=none;fillColor=none;align=left;verticalAlign=top;spacingLeft=4;spacingRight=4;overflow=hidden;rotatable=0;points=[[0,0.5],[1,0.5]];portConstraint=eastwest;whiteSpace=wrap;html=1;" vertex="1" parent="vIy7j_pHb_5L0HNnq9O6-67">
          <mxGeometry y="26" width="160" height="26" as="geometry" />
        </mxCell>
        <mxCell id="vIy7j_pHb_5L0HNnq9O6-69" value="" style="line;strokeWidth=1;fillColor=none;align=left;verticalAlign=middle;spacingTop=-1;spacingLeft=3;spacingRight=3;rotatable=0;labelPosition=right;points=[];portConstraint=eastwest;strokeColor=inherit;" vertex="1" parent="vIy7j_pHb_5L0HNnq9O6-67">
          <mxGeometry y="52" width="160" height="8" as="geometry" />
        </mxCell>
        <mxCell id="vIy7j_pHb_5L0HNnq9O6-70" value="&amp;nbsp;" style="text;strokeColor=none;fillColor=none;align=left;verticalAlign=top;spacingLeft=4;spacingRight=4;overflow=hidden;rotatable=0;points=[[0,0.5],[1,0.5]];portConstraint=eastwest;whiteSpace=wrap;html=1;" vertex="1" parent="vIy7j_pHb_5L0HNnq9O6-67">
          <mxGeometry y="60" width="160" height="26" as="geometry" />
        </mxCell>
        <mxCell id="vIy7j_pHb_5L0HNnq9O6-71" style="edgeStyle=orthogonalEdgeStyle;rounded=0;orthogonalLoop=1;jettySize=auto;html=1;exitX=0.5;exitY=0;exitDx=0;exitDy=0;endArrow=block;endFill=0;" edge="1" parent="1" source="vIy7j_pHb_5L0HNnq9O6-67" target="vIy7j_pHb_5L0HNnq9O6-49">
          <mxGeometry relative="1" as="geometry">
            <Array as="points">
              <mxPoint x="-427.47" y="1290.95" />
              <mxPoint x="-561.47" y="1290.95" />
              <mxPoint x="-561.47" y="1050.95" />
            </Array>
          </mxGeometry>
        </mxCell>
        <mxCell id="vIy7j_pHb_5L0HNnq9O6-72" style="edgeStyle=orthogonalEdgeStyle;rounded=0;orthogonalLoop=1;jettySize=auto;html=1;exitX=0.5;exitY=0;exitDx=0;exitDy=0;entryX=0.992;entryY=0.111;entryDx=0;entryDy=0;entryPerimeter=0;endArrow=block;endFill=0;" edge="1" parent="1" source="WeFiFPSYRljII1s766pl-1" target="vIy7j_pHb_5L0HNnq9O6-39">
          <mxGeometry relative="1" as="geometry">
            <Array as="points">
              <mxPoint x="-426" y="971" />
              <mxPoint x="-426" y="950" />
              <mxPoint x="-640" y="950" />
              <mxPoint x="-640" y="320" />
            </Array>
          </mxGeometry>
        </mxCell>
        <mxCell id="vIy7j_pHb_5L0HNnq9O6-81" value="ResortManagementSystem" style="swimlane;fontStyle=1;align=center;verticalAlign=top;childLayout=stackLayout;horizontal=1;startSize=26;horizontalStack=0;resizeParent=1;resizeParentMax=0;resizeLast=0;collapsible=1;marginBottom=0;whiteSpace=wrap;html=1;" vertex="1" parent="1">
          <mxGeometry x="-1400" y="90" width="160" height="86" as="geometry" />
        </mxCell>
        <mxCell id="vIy7j_pHb_5L0HNnq9O6-82" value="&amp;nbsp;" style="text;strokeColor=none;fillColor=none;align=left;verticalAlign=top;spacingLeft=4;spacingRight=4;overflow=hidden;rotatable=0;points=[[0,0.5],[1,0.5]];portConstraint=eastwest;whiteSpace=wrap;html=1;" vertex="1" parent="vIy7j_pHb_5L0HNnq9O6-81">
          <mxGeometry y="26" width="160" height="26" as="geometry" />
        </mxCell>
        <mxCell id="vIy7j_pHb_5L0HNnq9O6-83" value="" style="line;strokeWidth=1;fillColor=none;align=left;verticalAlign=middle;spacingTop=-1;spacingLeft=3;spacingRight=3;rotatable=0;labelPosition=right;points=[];portConstraint=eastwest;strokeColor=inherit;" vertex="1" parent="vIy7j_pHb_5L0HNnq9O6-81">
          <mxGeometry y="52" width="160" height="8" as="geometry" />
        </mxCell>
        <mxCell id="vIy7j_pHb_5L0HNnq9O6-84" value="&amp;nbsp;" style="text;strokeColor=none;fillColor=none;align=left;verticalAlign=top;spacingLeft=4;spacingRight=4;overflow=hidden;rotatable=0;points=[[0,0.5],[1,0.5]];portConstraint=eastwest;whiteSpace=wrap;html=1;" vertex="1" parent="vIy7j_pHb_5L0HNnq9O6-81">
          <mxGeometry y="60" width="160" height="26" as="geometry" />
        </mxCell>
        <mxCell id="vIy7j_pHb_5L0HNnq9O6-102" style="edgeStyle=orthogonalEdgeStyle;rounded=0;orthogonalLoop=1;jettySize=auto;html=1;entryX=1;entryY=0.5;entryDx=0;entryDy=0;endArrow=open;endFill=0;" edge="1" parent="1" target="Sj2HHbRkepg-0d2NE3xc-10">
          <mxGeometry relative="1" as="geometry">
            <mxPoint x="519" y="210" as="sourcePoint" />
            <mxPoint x="-346.0799999999999" y="817.4200000000003" as="targetPoint" />
            <Array as="points">
              <mxPoint x="740" y="210" />
              <mxPoint x="740" y="1060" />
              <mxPoint x="-346" y="1060" />
              <mxPoint x="-346" y="1062" />
            </Array>
          </mxGeometry>
        </mxCell>
        <mxCell id="vIy7j_pHb_5L0HNnq9O6-103" value="1" style="edgeLabel;html=1;align=center;verticalAlign=middle;resizable=0;points=[];" connectable="0" vertex="1" parent="vIy7j_pHb_5L0HNnq9O6-102">
          <mxGeometry x="-0.9627" y="-1" relative="1" as="geometry">
            <mxPoint x="-25" as="offset" />
          </mxGeometry>
        </mxCell>
        <mxCell id="vIy7j_pHb_5L0HNnq9O6-105" value="Create" style="edgeLabel;html=1;align=center;verticalAlign=middle;resizable=0;points=[];" connectable="0" vertex="1" parent="vIy7j_pHb_5L0HNnq9O6-102">
          <mxGeometry x="-0.4103" relative="1" as="geometry">
            <mxPoint as="offset" />
          </mxGeometry>
        </mxCell>
        <mxCell id="Sj2HHbRkepg-0d2NE3xc-35" value="1.*" style="edgeLabel;html=1;align=center;verticalAlign=middle;resizable=0;points=[];" connectable="0" vertex="1" parent="vIy7j_pHb_5L0HNnq9O6-102">
          <mxGeometry x="0.9702" y="-1" relative="1" as="geometry">
            <mxPoint x="-3" y="1" as="offset" />
          </mxGeometry>
        </mxCell>
        <mxCell id="vIy7j_pHb_5L0HNnq9O6-106" style="edgeStyle=orthogonalEdgeStyle;rounded=0;orthogonalLoop=1;jettySize=auto;html=1;endArrow=open;endFill=0;exitX=1;exitY=0.183;exitDx=0;exitDy=0;exitPerimeter=0;" edge="1" parent="1" source="Sj2HHbRkepg-0d2NE3xc-16">
          <mxGeometry relative="1" as="geometry">
            <mxPoint x="520" y="180" as="targetPoint" />
            <Array as="points">
              <mxPoint x="800" y="1080" />
              <mxPoint x="800" y="180" />
            </Array>
            <mxPoint x="-346.08" y="834" as="sourcePoint" />
          </mxGeometry>
        </mxCell>
        <mxCell id="vIy7j_pHb_5L0HNnq9O6-107" value="Contains" style="edgeLabel;html=1;align=center;verticalAlign=middle;resizable=0;points=[];" connectable="0" vertex="1" parent="vIy7j_pHb_5L0HNnq9O6-106">
          <mxGeometry x="0.3957" y="-1" relative="1" as="geometry">
            <mxPoint as="offset" />
          </mxGeometry>
        </mxCell>
        <mxCell id="vIy7j_pHb_5L0HNnq9O6-109" value="1..*" style="edgeLabel;html=1;align=center;verticalAlign=middle;resizable=0;points=[];" connectable="0" vertex="1" parent="vIy7j_pHb_5L0HNnq9O6-106">
          <mxGeometry x="0.9436" y="-2" relative="1" as="geometry">
            <mxPoint x="-38" as="offset" />
          </mxGeometry>
        </mxCell>
        <mxCell id="Sj2HHbRkepg-0d2NE3xc-9" value="1..*" style="edgeLabel;html=1;align=center;verticalAlign=middle;resizable=0;points=[];" connectable="0" vertex="1" parent="vIy7j_pHb_5L0HNnq9O6-106">
          <mxGeometry x="-0.9788" y="-2" relative="1" as="geometry">
            <mxPoint x="2" y="-2" as="offset" />
          </mxGeometry>
        </mxCell>
        <mxCell id="vIy7j_pHb_5L0HNnq9O6-111" style="edgeStyle=orthogonalEdgeStyle;rounded=0;orthogonalLoop=1;jettySize=auto;html=1;entryX=1;entryY=0.25;entryDx=0;entryDy=0;endArrow=open;endFill=0;exitX=0.982;exitY=-0.147;exitDx=0;exitDy=0;exitPerimeter=0;" edge="1" parent="1" source="-Pz-NLWRiqIHyBBIaTiA-5" target="vIy7j_pHb_5L0HNnq9O6-67">
          <mxGeometry relative="1" as="geometry">
            <mxPoint x="-347.47" y="1150.95" as="sourcePoint" />
            <mxPoint x="-347.55" y="1532.45" as="targetPoint" />
            <Array as="points">
              <mxPoint x="12.53" y="1130.95" />
              <mxPoint x="12.53" y="1362.95" />
            </Array>
          </mxGeometry>
        </mxCell>
        <mxCell id="vIy7j_pHb_5L0HNnq9O6-112" value="1" style="edgeLabel;html=1;align=center;verticalAlign=middle;resizable=0;points=[];" connectable="0" vertex="1" parent="vIy7j_pHb_5L0HNnq9O6-111">
          <mxGeometry x="-0.9248" y="-4" relative="1" as="geometry">
            <mxPoint x="-11" y="-4" as="offset" />
          </mxGeometry>
        </mxCell>
        <mxCell id="vIy7j_pHb_5L0HNnq9O6-113" value="1" style="edgeLabel;html=1;align=center;verticalAlign=middle;resizable=0;points=[];" connectable="0" vertex="1" parent="vIy7j_pHb_5L0HNnq9O6-111">
          <mxGeometry x="0.8462" y="-1" relative="1" as="geometry">
            <mxPoint x="-54" as="offset" />
          </mxGeometry>
        </mxCell>
        <mxCell id="vIy7j_pHb_5L0HNnq9O6-114" value="Contains" style="edgeLabel;html=1;align=center;verticalAlign=middle;resizable=0;points=[];" connectable="0" vertex="1" parent="vIy7j_pHb_5L0HNnq9O6-111">
          <mxGeometry x="-0.0031" y="2" relative="1" as="geometry">
            <mxPoint as="offset" />
          </mxGeometry>
        </mxCell>
        <mxCell id="vIy7j_pHb_5L0HNnq9O6-128" style="edgeStyle=orthogonalEdgeStyle;rounded=0;orthogonalLoop=1;jettySize=auto;html=1;exitX=1;exitY=0.5;exitDx=0;exitDy=0;entryX=0;entryY=0.158;entryDx=0;entryDy=0;entryPerimeter=0;" edge="1" parent="1" source="vIy7j_pHb_5L0HNnq9O6-82" target="vIy7j_pHb_5L0HNnq9O6-11">
          <mxGeometry relative="1" as="geometry" />
        </mxCell>
        <mxCell id="vIy7j_pHb_5L0HNnq9O6-129" value="1" style="edgeLabel;html=1;align=center;verticalAlign=middle;resizable=0;points=[];" connectable="0" vertex="1" parent="vIy7j_pHb_5L0HNnq9O6-128">
          <mxGeometry x="-0.922" y="3" relative="1" as="geometry">
            <mxPoint as="offset" />
          </mxGeometry>
        </mxCell>
        <mxCell id="vIy7j_pHb_5L0HNnq9O6-130" value="1..*" style="edgeLabel;html=1;align=center;verticalAlign=middle;resizable=0;points=[];" connectable="0" vertex="1" parent="vIy7j_pHb_5L0HNnq9O6-128">
          <mxGeometry x="0.8249" y="-1" relative="1" as="geometry">
            <mxPoint y="-11" as="offset" />
          </mxGeometry>
        </mxCell>
        <mxCell id="vIy7j_pHb_5L0HNnq9O6-131" value="Manages" style="edgeLabel;html=1;align=center;verticalAlign=middle;resizable=0;points=[];" connectable="0" vertex="1" parent="vIy7j_pHb_5L0HNnq9O6-128">
          <mxGeometry x="-0.363" y="1" relative="1" as="geometry">
            <mxPoint as="offset" />
          </mxGeometry>
        </mxCell>
        <mxCell id="vIy7j_pHb_5L0HNnq9O6-149" style="edgeStyle=orthogonalEdgeStyle;rounded=0;orthogonalLoop=1;jettySize=auto;html=1;exitX=1;exitY=0.5;exitDx=0;exitDy=0;" edge="1" parent="1" source="vIy7j_pHb_5L0HNnq9O6-12" target="vIy7j_pHb_5L0HNnq9O6-21">
          <mxGeometry relative="1" as="geometry">
            <Array as="points">
              <mxPoint x="-610" y="151" />
              <mxPoint x="-610" y="151" />
            </Array>
          </mxGeometry>
        </mxCell>
        <mxCell id="pluPpm19IUilGA6iMKDm-11" value="1..*" style="edgeLabel;html=1;align=center;verticalAlign=middle;resizable=0;points=[];" connectable="0" vertex="1" parent="vIy7j_pHb_5L0HNnq9O6-149">
          <mxGeometry x="-0.888" y="1" relative="1" as="geometry">
            <mxPoint x="1" as="offset" />
          </mxGeometry>
        </mxCell>
        <mxCell id="pluPpm19IUilGA6iMKDm-12" value="1..*" style="edgeLabel;html=1;align=center;verticalAlign=middle;resizable=0;points=[];" connectable="0" vertex="1" parent="vIy7j_pHb_5L0HNnq9O6-149">
          <mxGeometry x="0.8467" y="3" relative="1" as="geometry">
            <mxPoint x="1" as="offset" />
          </mxGeometry>
        </mxCell>
        <mxCell id="pluPpm19IUilGA6iMKDm-13" value="Have" style="edgeLabel;html=1;align=center;verticalAlign=middle;resizable=0;points=[];" connectable="0" vertex="1" parent="vIy7j_pHb_5L0HNnq9O6-149">
          <mxGeometry x="-0.0813" y="2" relative="1" as="geometry">
            <mxPoint as="offset" />
          </mxGeometry>
        </mxCell>
        <mxCell id="vIy7j_pHb_5L0HNnq9O6-150" style="edgeStyle=orthogonalEdgeStyle;rounded=0;orthogonalLoop=1;jettySize=auto;html=1;exitX=1;exitY=0.5;exitDx=0;exitDy=0;entryX=0;entryY=0.5;entryDx=0;entryDy=0;" edge="1" parent="1" source="vIy7j_pHb_5L0HNnq9O6-85" target="WeFiFPSYRljII1s766pl-22">
          <mxGeometry relative="1" as="geometry">
            <Array as="points">
              <mxPoint x="-940" y="170" />
              <mxPoint x="-600" y="170" />
              <mxPoint x="-600" y="349" />
            </Array>
          </mxGeometry>
        </mxCell>
        <mxCell id="pluPpm19IUilGA6iMKDm-8" value="1..*" style="edgeLabel;html=1;align=center;verticalAlign=middle;resizable=0;points=[];" connectable="0" vertex="1" parent="vIy7j_pHb_5L0HNnq9O6-150">
          <mxGeometry x="-0.7862" y="2" relative="1" as="geometry">
            <mxPoint x="-33" as="offset" />
          </mxGeometry>
        </mxCell>
        <mxCell id="pluPpm19IUilGA6iMKDm-9" value="1..*" style="edgeLabel;html=1;align=center;verticalAlign=middle;resizable=0;points=[];" connectable="0" vertex="1" parent="vIy7j_pHb_5L0HNnq9O6-150">
          <mxGeometry x="0.8458" y="1" relative="1" as="geometry">
            <mxPoint x="17" as="offset" />
          </mxGeometry>
        </mxCell>
        <mxCell id="pluPpm19IUilGA6iMKDm-10" value="Have" style="edgeLabel;html=1;align=center;verticalAlign=middle;resizable=0;points=[];" connectable="0" vertex="1" parent="vIy7j_pHb_5L0HNnq9O6-150">
          <mxGeometry x="-0.2763" y="-3" relative="1" as="geometry">
            <mxPoint x="1" as="offset" />
          </mxGeometry>
        </mxCell>
        <mxCell id="vIy7j_pHb_5L0HNnq9O6-151" style="edgeStyle=orthogonalEdgeStyle;rounded=0;orthogonalLoop=1;jettySize=auto;html=1;exitX=1;exitY=0.5;exitDx=0;exitDy=0;endArrow=open;endFill=0;entryX=0;entryY=0.5;entryDx=0;entryDy=0;" edge="1" parent="1" target="WeFiFPSYRljII1s766pl-4">
          <mxGeometry relative="1" as="geometry">
            <Array as="points">
              <mxPoint x="-940" y="130" />
              <mxPoint x="-880" y="130" />
              <mxPoint x="-880" y="1010" />
            </Array>
            <mxPoint x="-520" y="690" as="targetPoint" />
            <mxPoint x="-940" y="151" as="sourcePoint" />
          </mxGeometry>
        </mxCell>
        <mxCell id="pluPpm19IUilGA6iMKDm-5" value="Has" style="edgeLabel;html=1;align=center;verticalAlign=middle;resizable=0;points=[];" connectable="0" vertex="1" parent="vIy7j_pHb_5L0HNnq9O6-151">
          <mxGeometry x="0.3421" y="2" relative="1" as="geometry">
            <mxPoint x="8" y="2" as="offset" />
          </mxGeometry>
        </mxCell>
        <mxCell id="pluPpm19IUilGA6iMKDm-6" value="1..*" style="edgeLabel;html=1;align=center;verticalAlign=middle;resizable=0;points=[];" connectable="0" vertex="1" parent="vIy7j_pHb_5L0HNnq9O6-151">
          <mxGeometry x="0.8876" y="1" relative="1" as="geometry">
            <mxPoint x="36" y="1" as="offset" />
          </mxGeometry>
        </mxCell>
        <mxCell id="pluPpm19IUilGA6iMKDm-7" value="1" style="edgeLabel;html=1;align=center;verticalAlign=middle;resizable=0;points=[];" connectable="0" vertex="1" parent="vIy7j_pHb_5L0HNnq9O6-151">
          <mxGeometry x="-0.8909" y="5" relative="1" as="geometry">
            <mxPoint x="-18" as="offset" />
          </mxGeometry>
        </mxCell>
        <mxCell id="vIy7j_pHb_5L0HNnq9O6-156" style="edgeStyle=orthogonalEdgeStyle;rounded=0;orthogonalLoop=1;jettySize=auto;html=1;exitX=1;exitY=0.5;exitDx=0;exitDy=0;entryX=0.012;entryY=0.105;entryDx=0;entryDy=0;endArrow=open;endFill=0;entryPerimeter=0;" edge="1" parent="1" source="vIy7j_pHb_5L0HNnq9O6-14" target="Sj2HHbRkepg-0d2NE3xc-2">
          <mxGeometry relative="1" as="geometry">
            <mxPoint x="-920" y="210.99999999999955" as="sourcePoint" />
            <mxPoint x="-520" y="889.0000000000005" as="targetPoint" />
            <Array as="points">
              <mxPoint x="-920" y="211" />
              <mxPoint x="-920" y="1520" />
            </Array>
          </mxGeometry>
        </mxCell>
        <mxCell id="pluPpm19IUilGA6iMKDm-2" value="1" style="edgeLabel;html=1;align=center;verticalAlign=middle;resizable=0;points=[];" connectable="0" vertex="1" parent="vIy7j_pHb_5L0HNnq9O6-156">
          <mxGeometry x="-0.9852" relative="1" as="geometry">
            <mxPoint as="offset" />
          </mxGeometry>
        </mxCell>
        <mxCell id="pluPpm19IUilGA6iMKDm-3" value="1..*" style="edgeLabel;html=1;align=center;verticalAlign=middle;resizable=0;points=[];" connectable="0" vertex="1" parent="vIy7j_pHb_5L0HNnq9O6-156">
          <mxGeometry x="0.9498" y="1" relative="1" as="geometry">
            <mxPoint x="14" y="240" as="offset" />
          </mxGeometry>
        </mxCell>
        <mxCell id="Sj2HHbRkepg-0d2NE3xc-8" value="Has" style="edgeLabel;html=1;align=center;verticalAlign=middle;resizable=0;points=[];" connectable="0" vertex="1" parent="vIy7j_pHb_5L0HNnq9O6-156">
          <mxGeometry x="0.5311" y="1" relative="1" as="geometry">
            <mxPoint as="offset" />
          </mxGeometry>
        </mxCell>
        <mxCell id="Sj2HHbRkepg-0d2NE3xc-5" style="edgeStyle=orthogonalEdgeStyle;rounded=0;orthogonalLoop=1;jettySize=auto;html=1;exitX=0.5;exitY=0;exitDx=0;exitDy=0;entryX=1;entryY=0.5;entryDx=0;entryDy=0;endArrow=block;endFill=0;" edge="1" parent="1" source="Sj2HHbRkepg-0d2NE3xc-1" target="vIy7j_pHb_5L0HNnq9O6-50">
          <mxGeometry relative="1" as="geometry">
            <Array as="points">
              <mxPoint x="-427.55" y="1460.95" />
              <mxPoint x="-597.5500000000001" y="1460.95" />
              <mxPoint x="-597.5500000000001" y="1069.95" />
            </Array>
          </mxGeometry>
        </mxCell>
        <mxCell id="Sj2HHbRkepg-0d2NE3xc-1" value="Restaraunt" style="swimlane;fontStyle=1;align=center;verticalAlign=top;childLayout=stackLayout;horizontal=1;startSize=26;horizontalStack=0;resizeParent=1;resizeParentMax=0;resizeLast=0;collapsible=1;marginBottom=0;whiteSpace=wrap;html=1;" vertex="1" parent="1">
          <mxGeometry x="-507.55" y="1490.95" width="160" height="86" as="geometry" />
        </mxCell>
        <mxCell id="Sj2HHbRkepg-0d2NE3xc-2" value="- FoodMuen: List&amp;lt;string&amp;gt;" style="text;strokeColor=none;fillColor=none;align=left;verticalAlign=top;spacingLeft=4;spacingRight=4;overflow=hidden;rotatable=0;points=[[0,0.5],[1,0.5]];portConstraint=eastwest;whiteSpace=wrap;html=1;" vertex="1" parent="Sj2HHbRkepg-0d2NE3xc-1">
          <mxGeometry y="26" width="160" height="26" as="geometry" />
        </mxCell>
        <mxCell id="Sj2HHbRkepg-0d2NE3xc-3" value="" style="line;strokeWidth=1;fillColor=none;align=left;verticalAlign=middle;spacingTop=-1;spacingLeft=3;spacingRight=3;rotatable=0;labelPosition=right;points=[];portConstraint=eastwest;strokeColor=inherit;" vertex="1" parent="Sj2HHbRkepg-0d2NE3xc-1">
          <mxGeometry y="52" width="160" height="8" as="geometry" />
        </mxCell>
        <mxCell id="Sj2HHbRkepg-0d2NE3xc-4" value="&amp;nbsp;" style="text;strokeColor=none;fillColor=none;align=left;verticalAlign=top;spacingLeft=4;spacingRight=4;overflow=hidden;rotatable=0;points=[[0,0.5],[1,0.5]];portConstraint=eastwest;whiteSpace=wrap;html=1;" vertex="1" parent="Sj2HHbRkepg-0d2NE3xc-1">
          <mxGeometry y="60" width="160" height="26" as="geometry" />
        </mxCell>
        <mxCell id="Sj2HHbRkepg-0d2NE3xc-12" style="edgeStyle=orthogonalEdgeStyle;rounded=0;orthogonalLoop=1;jettySize=auto;html=1;entryX=1;entryY=0.25;entryDx=0;entryDy=0;endArrow=open;endFill=0;" edge="1" parent="1" target="Sj2HHbRkepg-0d2NE3xc-1">
          <mxGeometry relative="1" as="geometry">
            <mxPoint x="-347.47" y="1110.95" as="sourcePoint" />
            <Array as="points">
              <mxPoint x="89" y="1111" />
              <mxPoint x="89" y="1513" />
            </Array>
          </mxGeometry>
        </mxCell>
        <mxCell id="Sj2HHbRkepg-0d2NE3xc-13" value="1" style="edgeLabel;html=1;align=center;verticalAlign=middle;resizable=0;points=[];" connectable="0" vertex="1" parent="Sj2HHbRkepg-0d2NE3xc-12">
          <mxGeometry x="-0.9789" relative="1" as="geometry">
            <mxPoint x="12" as="offset" />
          </mxGeometry>
        </mxCell>
        <mxCell id="Sj2HHbRkepg-0d2NE3xc-14" value="1..*" style="edgeLabel;html=1;align=center;verticalAlign=middle;resizable=0;points=[];" connectable="0" vertex="1" parent="Sj2HHbRkepg-0d2NE3xc-12">
          <mxGeometry x="0.9566" y="-2" relative="1" as="geometry">
            <mxPoint x="-3" as="offset" />
          </mxGeometry>
        </mxCell>
        <mxCell id="Sj2HHbRkepg-0d2NE3xc-15" value="Contains" style="edgeLabel;html=1;align=center;verticalAlign=middle;resizable=0;points=[];" connectable="0" vertex="1" parent="Sj2HHbRkepg-0d2NE3xc-12">
          <mxGeometry x="0.0255" y="3" relative="1" as="geometry">
            <mxPoint as="offset" />
          </mxGeometry>
        </mxCell>
        <mxCell id="Sj2HHbRkepg-0d2NE3xc-18" style="edgeStyle=orthogonalEdgeStyle;rounded=0;orthogonalLoop=1;jettySize=auto;html=1;exitX=1;exitY=0.5;exitDx=0;exitDy=0;entryX=0.993;entryY=0.648;entryDx=0;entryDy=0;endArrow=open;endFill=0;entryPerimeter=0;" edge="1" parent="1" source="WeFiFPSYRljII1s766pl-22" target="Sj2HHbRkepg-0d2NE3xc-6">
          <mxGeometry relative="1" as="geometry">
            <mxPoint x="-340" y="800" as="targetPoint" />
            <Array as="points">
              <mxPoint x="680" y="349" />
              <mxPoint x="680" y="1040" />
            </Array>
          </mxGeometry>
        </mxCell>
        <mxCell id="Sj2HHbRkepg-0d2NE3xc-19" value="1..*" style="edgeLabel;html=1;align=center;verticalAlign=middle;resizable=0;points=[];" connectable="0" vertex="1" parent="Sj2HHbRkepg-0d2NE3xc-18">
          <mxGeometry x="-0.9781" y="-1" relative="1" as="geometry">
            <mxPoint as="offset" />
          </mxGeometry>
        </mxCell>
        <mxCell id="Sj2HHbRkepg-0d2NE3xc-20" value="1..*" style="edgeLabel;html=1;align=center;verticalAlign=middle;resizable=0;points=[];" connectable="0" vertex="1" parent="Sj2HHbRkepg-0d2NE3xc-18">
          <mxGeometry x="0.9439" y="-1" relative="1" as="geometry">
            <mxPoint x="-19" as="offset" />
          </mxGeometry>
        </mxCell>
        <mxCell id="Sj2HHbRkepg-0d2NE3xc-33" value="Prepare" style="edgeLabel;html=1;align=center;verticalAlign=middle;resizable=0;points=[];" connectable="0" vertex="1" parent="Sj2HHbRkepg-0d2NE3xc-18">
          <mxGeometry x="-0.7193" y="3" relative="1" as="geometry">
            <mxPoint as="offset" />
          </mxGeometry>
        </mxCell>
        <mxCell id="Sj2HHbRkepg-0d2NE3xc-25" style="edgeStyle=orthogonalEdgeStyle;rounded=0;orthogonalLoop=1;jettySize=auto;html=1;exitX=0.25;exitY=0;exitDx=0;exitDy=0;entryX=1;entryY=0.5;entryDx=0;entryDy=0;" edge="1" parent="1" source="Sj2HHbRkepg-0d2NE3xc-21" target="vIy7j_pHb_5L0HNnq9O6-2">
          <mxGeometry relative="1" as="geometry">
            <Array as="points">
              <mxPoint x="-260" y="420" />
              <mxPoint x="-580" y="420" />
              <mxPoint x="-580" y="-161" />
            </Array>
          </mxGeometry>
        </mxCell>
        <mxCell id="Sj2HHbRkepg-0d2NE3xc-21" value="FoodDeliver" style="swimlane;fontStyle=1;align=center;verticalAlign=top;childLayout=stackLayout;horizontal=1;startSize=26;horizontalStack=0;resizeParent=1;resizeParentMax=0;resizeLast=0;collapsible=1;marginBottom=0;whiteSpace=wrap;html=1;" vertex="1" parent="1">
          <mxGeometry x="-520" y="440" width="1040" height="86" as="geometry" />
        </mxCell>
        <mxCell id="Sj2HHbRkepg-0d2NE3xc-22" value="-&amp;nbsp;FoodDeliverID: Int" style="text;strokeColor=none;fillColor=none;align=left;verticalAlign=top;spacingLeft=4;spacingRight=4;overflow=hidden;rotatable=0;points=[[0,0.5],[1,0.5]];portConstraint=eastwest;whiteSpace=wrap;html=1;" vertex="1" parent="Sj2HHbRkepg-0d2NE3xc-21">
          <mxGeometry y="26" width="1040" height="26" as="geometry" />
        </mxCell>
        <mxCell id="Sj2HHbRkepg-0d2NE3xc-23" value="" style="line;strokeWidth=1;fillColor=none;align=left;verticalAlign=middle;spacingTop=-1;spacingLeft=3;spacingRight=3;rotatable=0;labelPosition=right;points=[];portConstraint=eastwest;strokeColor=inherit;" vertex="1" parent="Sj2HHbRkepg-0d2NE3xc-21">
          <mxGeometry y="52" width="1040" height="8" as="geometry" />
        </mxCell>
        <mxCell id="Sj2HHbRkepg-0d2NE3xc-24" value="- Deliver(): bool" style="text;strokeColor=none;fillColor=none;align=left;verticalAlign=top;spacingLeft=4;spacingRight=4;overflow=hidden;rotatable=0;points=[[0,0.5],[1,0.5]];portConstraint=eastwest;whiteSpace=wrap;html=1;" vertex="1" parent="Sj2HHbRkepg-0d2NE3xc-21">
          <mxGeometry y="60" width="1040" height="26" as="geometry" />
        </mxCell>
        <mxCell id="Sj2HHbRkepg-0d2NE3xc-26" style="edgeStyle=orthogonalEdgeStyle;rounded=0;orthogonalLoop=1;jettySize=auto;html=1;exitX=1;exitY=0.5;exitDx=0;exitDy=0;entryX=0;entryY=0.5;entryDx=0;entryDy=0;" edge="1" parent="1" source="vIy7j_pHb_5L0HNnq9O6-85" target="Sj2HHbRkepg-0d2NE3xc-22">
          <mxGeometry relative="1" as="geometry">
            <Array as="points">
              <mxPoint x="-940" y="190" />
              <mxPoint x="-620" y="190" />
              <mxPoint x="-620" y="479" />
            </Array>
          </mxGeometry>
        </mxCell>
        <mxCell id="Sj2HHbRkepg-0d2NE3xc-27" value="1..*" style="edgeLabel;html=1;align=center;verticalAlign=middle;resizable=0;points=[];" connectable="0" vertex="1" parent="Sj2HHbRkepg-0d2NE3xc-26">
          <mxGeometry x="-0.89" relative="1" as="geometry">
            <mxPoint as="offset" />
          </mxGeometry>
        </mxCell>
        <mxCell id="Sj2HHbRkepg-0d2NE3xc-28" value="Have" style="edgeLabel;html=1;align=center;verticalAlign=middle;resizable=0;points=[];" connectable="0" vertex="1" parent="Sj2HHbRkepg-0d2NE3xc-26">
          <mxGeometry x="-0.3183" y="1" relative="1" as="geometry">
            <mxPoint as="offset" />
          </mxGeometry>
        </mxCell>
        <mxCell id="Sj2HHbRkepg-0d2NE3xc-29" value="1..*" style="edgeLabel;html=1;align=center;verticalAlign=middle;resizable=0;points=[];" connectable="0" vertex="1" parent="Sj2HHbRkepg-0d2NE3xc-26">
          <mxGeometry x="0.8978" relative="1" as="geometry">
            <mxPoint x="7" as="offset" />
          </mxGeometry>
        </mxCell>
        <mxCell id="Sj2HHbRkepg-0d2NE3xc-30" style="edgeStyle=orthogonalEdgeStyle;rounded=0;orthogonalLoop=1;jettySize=auto;html=1;exitX=1;exitY=0.5;exitDx=0;exitDy=0;endArrow=open;endFill=0;" edge="1" parent="1" source="Sj2HHbRkepg-0d2NE3xc-22">
          <mxGeometry relative="1" as="geometry">
            <mxPoint x="-348" y="1000" as="targetPoint" />
            <Array as="points">
              <mxPoint x="640" y="479" />
              <mxPoint x="640" y="1000" />
              <mxPoint x="-348" y="1000" />
            </Array>
          </mxGeometry>
        </mxCell>
        <mxCell id="Sj2HHbRkepg-0d2NE3xc-31" value="1..*" style="edgeLabel;html=1;align=center;verticalAlign=middle;resizable=0;points=[];" connectable="0" vertex="1" parent="Sj2HHbRkepg-0d2NE3xc-30">
          <mxGeometry x="-0.9682" y="1" relative="1" as="geometry">
            <mxPoint as="offset" />
          </mxGeometry>
        </mxCell>
        <mxCell id="Sj2HHbRkepg-0d2NE3xc-32" value="1..*" style="edgeLabel;html=1;align=center;verticalAlign=middle;resizable=0;points=[];" connectable="0" vertex="1" parent="Sj2HHbRkepg-0d2NE3xc-30">
          <mxGeometry x="0.9642" y="-1" relative="1" as="geometry">
            <mxPoint x="-1" y="1" as="offset" />
          </mxGeometry>
        </mxCell>
        <mxCell id="Sj2HHbRkepg-0d2NE3xc-34" value="Deliver" style="edgeLabel;html=1;align=center;verticalAlign=middle;resizable=0;points=[];" connectable="0" vertex="1" parent="Sj2HHbRkepg-0d2NE3xc-30">
          <mxGeometry x="-0.542" relative="1" as="geometry">
            <mxPoint as="offset" />
          </mxGeometry>
        </mxCell>
        <mxCell id="Sj2HHbRkepg-0d2NE3xc-38" value="Wifi" style="swimlane;fontStyle=1;align=center;verticalAlign=top;childLayout=stackLayout;horizontal=1;startSize=26;horizontalStack=0;resizeParent=1;resizeParentMax=0;resizeLast=0;collapsible=1;marginBottom=0;whiteSpace=wrap;html=1;" vertex="1" parent="1">
          <mxGeometry x="80" y="760" width="200" height="86" as="geometry" />
        </mxCell>
        <mxCell id="Sj2HHbRkepg-0d2NE3xc-39" value="- Password: string" style="text;strokeColor=none;fillColor=none;align=left;verticalAlign=top;spacingLeft=4;spacingRight=4;overflow=hidden;rotatable=0;points=[[0,0.5],[1,0.5]];portConstraint=eastwest;whiteSpace=wrap;html=1;" vertex="1" parent="Sj2HHbRkepg-0d2NE3xc-38">
          <mxGeometry y="26" width="200" height="26" as="geometry" />
        </mxCell>
        <mxCell id="Sj2HHbRkepg-0d2NE3xc-40" value="" style="line;strokeWidth=1;fillColor=none;align=left;verticalAlign=middle;spacingTop=-1;spacingLeft=3;spacingRight=3;rotatable=0;labelPosition=right;points=[];portConstraint=eastwest;strokeColor=inherit;" vertex="1" parent="Sj2HHbRkepg-0d2NE3xc-38">
          <mxGeometry y="52" width="200" height="8" as="geometry" />
        </mxCell>
        <mxCell id="Sj2HHbRkepg-0d2NE3xc-41" value="- GeneratPassword():string" style="text;strokeColor=none;fillColor=none;align=left;verticalAlign=top;spacingLeft=4;spacingRight=4;overflow=hidden;rotatable=0;points=[[0,0.5],[1,0.5]];portConstraint=eastwest;whiteSpace=wrap;html=1;" vertex="1" parent="Sj2HHbRkepg-0d2NE3xc-38">
          <mxGeometry y="60" width="200" height="26" as="geometry" />
        </mxCell>
        <mxCell id="Sj2HHbRkepg-0d2NE3xc-42" value="ElectronicCard" style="swimlane;fontStyle=1;align=center;verticalAlign=top;childLayout=stackLayout;horizontal=1;startSize=26;horizontalStack=0;resizeParent=1;resizeParentMax=0;resizeLast=0;collapsible=1;marginBottom=0;whiteSpace=wrap;html=1;" vertex="1" parent="1">
          <mxGeometry x="80" y="640" width="200" height="86" as="geometry" />
        </mxCell>
        <mxCell id="Sj2HHbRkepg-0d2NE3xc-43" value="- ElectronicCard():List&amp;lt;int&amp;gt;" style="text;strokeColor=none;fillColor=none;align=left;verticalAlign=top;spacingLeft=4;spacingRight=4;overflow=hidden;rotatable=0;points=[[0,0.5],[1,0.5]];portConstraint=eastwest;whiteSpace=wrap;html=1;" vertex="1" parent="Sj2HHbRkepg-0d2NE3xc-42">
          <mxGeometry y="26" width="200" height="26" as="geometry" />
        </mxCell>
        <mxCell id="Sj2HHbRkepg-0d2NE3xc-44" value="" style="line;strokeWidth=1;fillColor=none;align=left;verticalAlign=middle;spacingTop=-1;spacingLeft=3;spacingRight=3;rotatable=0;labelPosition=right;points=[];portConstraint=eastwest;strokeColor=inherit;" vertex="1" parent="Sj2HHbRkepg-0d2NE3xc-42">
          <mxGeometry y="52" width="200" height="8" as="geometry" />
        </mxCell>
        <mxCell id="Sj2HHbRkepg-0d2NE3xc-45" value="-GeneratElectronicCard():List&amp;lt;int&amp;gt;" style="text;strokeColor=none;fillColor=none;align=left;verticalAlign=top;spacingLeft=4;spacingRight=4;overflow=hidden;rotatable=0;points=[[0,0.5],[1,0.5]];portConstraint=eastwest;whiteSpace=wrap;html=1;" vertex="1" parent="Sj2HHbRkepg-0d2NE3xc-42">
          <mxGeometry y="60" width="200" height="26" as="geometry" />
        </mxCell>
        <mxCell id="Sj2HHbRkepg-0d2NE3xc-71" style="edgeStyle=orthogonalEdgeStyle;rounded=0;orthogonalLoop=1;jettySize=auto;html=1;exitX=0.5;exitY=0;exitDx=0;exitDy=0;entryX=1;entryY=0.5;entryDx=0;entryDy=0;endArrow=block;endFill=0;" edge="1" parent="1" source="Sj2HHbRkepg-0d2NE3xc-50" target="vIy7j_pHb_5L0HNnq9O6-42">
          <mxGeometry relative="1" as="geometry">
            <Array as="points">
              <mxPoint x="-420" y="590" />
              <mxPoint x="-660" y="590" />
              <mxPoint x="-660" y="329" />
            </Array>
          </mxGeometry>
        </mxCell>
        <mxCell id="Sj2HHbRkepg-0d2NE3xc-50" value="RoomeRersevation" style="swimlane;fontStyle=1;align=center;verticalAlign=top;childLayout=stackLayout;horizontal=1;startSize=26;horizontalStack=0;resizeParent=1;resizeParentMax=0;resizeLast=0;collapsible=1;marginBottom=0;whiteSpace=wrap;html=1;" vertex="1" parent="1">
          <mxGeometry x="-520" y="690" width="200" height="112" as="geometry" />
        </mxCell>
        <mxCell id="Sj2HHbRkepg-0d2NE3xc-55" value="&amp;nbsp;" style="text;strokeColor=none;fillColor=none;align=left;verticalAlign=top;spacingLeft=4;spacingRight=4;overflow=hidden;rotatable=0;points=[[0,0.5],[1,0.5]];portConstraint=eastwest;whiteSpace=wrap;html=1;" vertex="1" parent="Sj2HHbRkepg-0d2NE3xc-50">
          <mxGeometry y="26" width="200" height="26" as="geometry" />
        </mxCell>
        <mxCell id="Sj2HHbRkepg-0d2NE3xc-56" value="" style="line;strokeWidth=1;fillColor=none;align=left;verticalAlign=middle;spacingTop=-1;spacingLeft=3;spacingRight=3;rotatable=0;labelPosition=right;points=[];portConstraint=eastwest;strokeColor=inherit;" vertex="1" parent="Sj2HHbRkepg-0d2NE3xc-50">
          <mxGeometry y="52" width="200" height="8" as="geometry" />
        </mxCell>
        <mxCell id="Sj2HHbRkepg-0d2NE3xc-57" value="-GenerateElectronicCard():void" style="text;strokeColor=none;fillColor=none;align=left;verticalAlign=top;spacingLeft=4;spacingRight=4;overflow=hidden;rotatable=0;points=[[0,0.5],[1,0.5]];portConstraint=eastwest;whiteSpace=wrap;html=1;" vertex="1" parent="Sj2HHbRkepg-0d2NE3xc-50">
          <mxGeometry y="60" width="200" height="26" as="geometry" />
        </mxCell>
        <mxCell id="Sj2HHbRkepg-0d2NE3xc-58" value="-GenerateWifi():void" style="text;strokeColor=none;fillColor=none;align=left;verticalAlign=top;spacingLeft=4;spacingRight=4;overflow=hidden;rotatable=0;points=[[0,0.5],[1,0.5]];portConstraint=eastwest;whiteSpace=wrap;html=1;" vertex="1" parent="Sj2HHbRkepg-0d2NE3xc-50">
          <mxGeometry y="86" width="200" height="26" as="geometry" />
        </mxCell>
        <mxCell id="Sj2HHbRkepg-0d2NE3xc-60" style="edgeStyle=orthogonalEdgeStyle;rounded=0;orthogonalLoop=1;jettySize=auto;html=1;exitX=1.007;exitY=-0.089;exitDx=0;exitDy=0;endArrow=open;endFill=0;exitPerimeter=0;entryX=-0.007;entryY=0.8;entryDx=0;entryDy=0;entryPerimeter=0;" edge="1" parent="1" source="Sj2HHbRkepg-0d2NE3xc-58" target="Sj2HHbRkepg-0d2NE3xc-39">
          <mxGeometry relative="1" as="geometry">
            <mxPoint x="38" y="699" as="targetPoint" />
            <Array as="points">
              <mxPoint x="-319" y="770" />
              <mxPoint x="39" y="770" />
            </Array>
          </mxGeometry>
        </mxCell>
        <mxCell id="Sj2HHbRkepg-0d2NE3xc-61" value="Contains" style="edgeLabel;html=1;align=center;verticalAlign=middle;resizable=0;points=[];" connectable="0" vertex="1" parent="Sj2HHbRkepg-0d2NE3xc-60">
          <mxGeometry x="-0.0139" y="-1" relative="1" as="geometry">
            <mxPoint as="offset" />
          </mxGeometry>
        </mxCell>
        <mxCell id="Sj2HHbRkepg-0d2NE3xc-64" value="1" style="edgeLabel;html=1;align=center;verticalAlign=middle;resizable=0;points=[];" connectable="0" vertex="1" parent="Sj2HHbRkepg-0d2NE3xc-60">
          <mxGeometry x="-0.8212" y="-3" relative="1" as="geometry">
            <mxPoint x="-14" as="offset" />
          </mxGeometry>
        </mxCell>
        <mxCell id="Sj2HHbRkepg-0d2NE3xc-65" value="1" style="edgeLabel;html=1;align=center;verticalAlign=middle;resizable=0;points=[];" connectable="0" vertex="1" parent="Sj2HHbRkepg-0d2NE3xc-60">
          <mxGeometry x="0.7764" y="-2" relative="1" as="geometry">
            <mxPoint x="11" as="offset" />
          </mxGeometry>
        </mxCell>
        <mxCell id="Sj2HHbRkepg-0d2NE3xc-66" style="edgeStyle=orthogonalEdgeStyle;rounded=0;orthogonalLoop=1;jettySize=auto;html=1;exitX=1;exitY=0.5;exitDx=0;exitDy=0;entryX=0;entryY=0.5;entryDx=0;entryDy=0;endArrow=open;endFill=0;" edge="1" parent="1" source="Sj2HHbRkepg-0d2NE3xc-55" target="Sj2HHbRkepg-0d2NE3xc-43">
          <mxGeometry relative="1" as="geometry">
            <Array as="points">
              <mxPoint x="40" y="729" />
              <mxPoint x="40" y="679" />
            </Array>
          </mxGeometry>
        </mxCell>
        <mxCell id="Sj2HHbRkepg-0d2NE3xc-67" value="1" style="edgeLabel;html=1;align=center;verticalAlign=middle;resizable=0;points=[];" connectable="0" vertex="1" parent="Sj2HHbRkepg-0d2NE3xc-66">
          <mxGeometry x="-0.9263" relative="1" as="geometry">
            <mxPoint as="offset" />
          </mxGeometry>
        </mxCell>
        <mxCell id="Sj2HHbRkepg-0d2NE3xc-68" value="1" style="edgeLabel;html=1;align=center;verticalAlign=middle;resizable=0;points=[];" connectable="0" vertex="1" parent="Sj2HHbRkepg-0d2NE3xc-66">
          <mxGeometry x="0.8677" y="-3" relative="1" as="geometry">
            <mxPoint as="offset" />
          </mxGeometry>
        </mxCell>
        <mxCell id="Sj2HHbRkepg-0d2NE3xc-69" value="Contains" style="edgeLabel;html=1;align=center;verticalAlign=middle;resizable=0;points=[];" connectable="0" vertex="1" parent="Sj2HHbRkepg-0d2NE3xc-66">
          <mxGeometry x="-0.3588" y="2" relative="1" as="geometry">
            <mxPoint as="offset" />
          </mxGeometry>
        </mxCell>
        <mxCell id="Sj2HHbRkepg-0d2NE3xc-72" style="edgeStyle=orthogonalEdgeStyle;rounded=0;orthogonalLoop=1;jettySize=auto;html=1;exitX=1;exitY=0.5;exitDx=0;exitDy=0;entryX=0.75;entryY=0;entryDx=0;entryDy=0;" edge="1" parent="1" source="-Pz-NLWRiqIHyBBIaTiA-3" target="Sj2HHbRkepg-0d2NE3xc-50">
          <mxGeometry relative="1" as="geometry">
            <Array as="points">
              <mxPoint x="710" y="233" />
              <mxPoint x="710" y="550" />
              <mxPoint x="-370" y="550" />
            </Array>
          </mxGeometry>
        </mxCell>
        <mxCell id="Sj2HHbRkepg-0d2NE3xc-73" value="Contains" style="edgeLabel;html=1;align=center;verticalAlign=middle;resizable=0;points=[];" connectable="0" vertex="1" parent="Sj2HHbRkepg-0d2NE3xc-72">
          <mxGeometry x="-0.6432" y="-1" relative="1" as="geometry">
            <mxPoint as="offset" />
          </mxGeometry>
        </mxCell>
      </root>
    </mxGraphModel>
  </diagram>
</mxfile>
